<?xml version="1.0" encoding="utf-8"?>
<!-- Generator: Adobe Illustrator 27.5.0, SVG Export Plug-In . SVG Version: 6.00 Build 0)  -->
<svg version="1.1" xmlns="http://www.w3.org/2000/svg" xmlns:xlink="http://www.w3.org/1999/xlink" x="0px" y="0px"
	 viewBox="0 0 500 500" style="enable-background:new 0 0 500 500;" xml:space="preserve">
<g id="Background_complete">
	<rect x="15.326" y="20.517" style="fill:#F5F5F5;" width="468.375" height="189.827"/>
	<g>
		<rect x="98.321" y="147.259" style="fill:#EBEBEB;" width="310.793" height="14.786"/>
		<rect x="117.655" y="147.259" style="fill:#EBEBEB;" width="12.717" height="61.704"/>
		<rect x="248.112" y="151.744" style="fill:#EBEBEB;" width="12.717" height="57.219"/>
		<rect x="378.57" y="154.652" style="fill:#EBEBEB;" width="12.717" height="54.311"/>
		<rect x="117.655" y="162.045" style="fill:#E0E0E0;" width="12.717" height="5.047"/>
		<rect x="248.112" y="162.045" style="fill:#E0E0E0;" width="12.717" height="5.047"/>
		<rect x="378.57" y="162.045" style="fill:#E0E0E0;" width="12.717" height="5.047"/>
	</g>
	<g>
		<g>
			<rect x="101.312" y="226.559" style="fill:#E6E6E6;" width="16.94" height="17.145"/>
			<rect x="15.235" y="226.751" style="fill:#EBEBEB;" width="16.94" height="17.145"/>
			<rect x="36.506" y="226.751" style="fill:#EBEBEB;" width="16.94" height="17.145"/>
			<rect x="57.967" y="226.559" style="fill:#E6E6E6;" width="16.94" height="17.145"/>
			<rect x="79.45" y="226.751" style="fill:#EBEBEB;" width="16.94" height="17.145"/>
			<rect x="122.795" y="226.751" style="fill:#EBEBEB;" width="16.94" height="17.145"/>
			<rect x="144.657" y="226.559" style="fill:#E6E6E6;" width="16.94" height="17.145"/>
			<rect x="166.837" y="226.045" style="fill:#EBEBEB;" width="16.94" height="17.145"/>
			<rect x="188.7" y="225.853" style="fill:#E6E6E6;" width="16.94" height="17.145"/>
			<rect x="210.182" y="225.744" style="fill:#F5F5F5;" width="16.94" height="17.145"/>
			<rect x="231.854" y="226.045" style="fill:#EBEBEB;" width="16.94" height="17.145"/>
			<rect x="253.717" y="225.853" style="fill:#E6E6E6;" width="16.94" height="17.145"/>
			<rect x="275.029" y="226.218" style="fill:#EBEBEB;" width="16.94" height="17.145"/>
			<rect x="296.701" y="226.218" style="fill:#EBEBEB;" width="16.94" height="17.145"/>
			<rect x="319.075" y="225.508" style="fill:#E6E6E6;" width="16.94" height="17.145"/>
			<rect x="340.747" y="225.508" style="fill:#EBEBEB;" width="16.94" height="17.145"/>
			<rect x="362.42" y="225.445" style="fill:#F5F5F5;" width="16.94" height="17.145"/>
			<rect x="384.092" y="225.508" style="fill:#EBEBEB;" width="16.94" height="17.145"/>
			<rect x="405.765" y="225.508" style="fill:#E6E6E6;" width="16.94" height="17.145"/>
			<rect x="427.438" y="225.508" style="fill:#EBEBEB;" width="16.94" height="17.145"/>
			<rect x="449.11" y="225.508" style="fill:#E6E6E6;" width="16.94" height="17.145"/>
			<rect x="470.783" y="225.508" style="fill:#E6E6E6;" width="16.94" height="17.145"/>
			<rect x="15.235" y="248.442" style="fill:#EBEBEB;" width="16.94" height="17.145"/>
			<rect x="36.696" y="248.249" style="fill:#F5F5F5;" width="16.94" height="17.145"/>
			<rect x="57.777" y="248.442" style="fill:#EBEBEB;" width="16.94" height="17.145"/>
			<rect x="79.45" y="248.442" style="fill:#EBEBEB;" width="16.94" height="17.145"/>
			<rect x="101.312" y="247.948" style="fill:#F5F5F5;" width="16.94" height="17.145"/>
			<rect x="122.795" y="248.442" style="fill:#EBEBEB;" width="16.94" height="17.145"/>
			<rect x="145.164" y="247.435" style="fill:#F5F5F5;" width="16.94" height="17.145"/>
			<rect x="167.027" y="247.544" style="fill:#E6E6E6;" width="16.94" height="17.145"/>
			<rect x="188.509" y="247.736" style="fill:#EBEBEB;" width="16.94" height="17.145"/>
			<rect x="210.182" y="247.736" style="fill:#EBEBEB;" width="16.94" height="17.145"/>
			<rect x="232.045" y="247.544" style="fill:#E6E6E6;" width="16.94" height="17.145"/>
			<rect x="253.527" y="247.736" style="fill:#EBEBEB;" width="16.94" height="17.145"/>
			<rect x="275.029" y="247.909" style="fill:#E6E6E6;" width="16.94" height="17.145"/>
			<rect x="297.402" y="246.898" style="fill:#F5F5F5;" width="16.94" height="17.145"/>
			<rect x="319.075" y="247.199" style="fill:#EBEBEB;" width="16.94" height="17.145"/>
			<rect x="340.747" y="247.199" style="fill:#E6E6E6;" width="16.94" height="17.145"/>
			<rect x="362.42" y="247.199" style="fill:#EBEBEB;" width="16.94" height="17.145"/>
			<rect x="384.092" y="247.199" style="fill:#E6E6E6;" width="16.94" height="17.145"/>
			<rect x="405.765" y="247.199" style="fill:#EBEBEB;" width="16.94" height="17.145"/>
			<rect x="427.438" y="247.199" style="fill:#E6E6E6;" width="16.94" height="17.145"/>
			<rect x="449.11" y="247.136" style="fill:#F5F5F5;" width="16.94" height="17.145"/>
			<rect x="470.783" y="247.199" style="fill:#EBEBEB;" width="16.94" height="17.145"/>
		</g>
		<g>
			
				<rect x="469.554" y="290.693" transform="matrix(-1 -1.224647e-16 1.224647e-16 -1 956.0493 598.53)" style="fill:#EBEBEB;" width="16.94" height="17.145"/>
			
				<rect x="448.283" y="290.693" transform="matrix(-1 -1.224647e-16 1.224647e-16 -1 913.5069 598.53)" style="fill:#EBEBEB;" width="16.94" height="17.145"/>
			
				<rect x="426.822" y="290.885" transform="matrix(-1 -1.224647e-16 1.224647e-16 -1 870.5841 598.9152)" style="fill:#E6E6E6;" width="16.94" height="17.145"/>
			
				<rect x="405.34" y="290.693" transform="matrix(-1 -1.224647e-16 1.224647e-16 -1 827.6197 598.53)" style="fill:#EBEBEB;" width="16.94" height="17.145"/>
			
				<rect x="383.477" y="290.885" transform="matrix(-1 -1.224647e-16 1.224647e-16 -1 783.8941 598.9152)" style="fill:#E6E6E6;" width="16.94" height="17.145"/>
			
				<rect x="361.995" y="290.693" transform="matrix(-1 -1.224647e-16 1.224647e-16 -1 740.9297 598.53)" style="fill:#EBEBEB;" width="16.94" height="17.145"/>
			
				<rect x="340.132" y="290.885" transform="matrix(-1 -1.224647e-16 1.224647e-16 -1 697.2041 598.9152)" style="fill:#E6E6E6;" width="16.94" height="17.145"/>
			
				<rect x="318.65" y="290.693" transform="matrix(-1 -1.224647e-16 1.224647e-16 -1 654.2397 598.53)" style="fill:#EBEBEB;" width="16.94" height="17.145"/>
			
				<rect x="296.787" y="290.885" transform="matrix(-1 -1.224647e-16 1.224647e-16 -1 610.5143 598.9152)" style="fill:#E6E6E6;" width="16.94" height="17.145"/>
			
				<rect x="275.305" y="290.994" transform="matrix(-1 -1.224647e-16 1.224647e-16 -1 567.5499 599.1326)" style="fill:#F5F5F5;" width="16.94" height="17.145"/>
			
				<rect x="253.632" y="290.693" transform="matrix(-1 -1.224647e-16 1.224647e-16 -1 524.2049 598.53)" style="fill:#EBEBEB;" width="16.94" height="17.145"/>
			
				<rect x="231.77" y="290.885" transform="matrix(-1 -1.224647e-16 1.224647e-16 -1 480.4793 598.9152)" style="fill:#E6E6E6;" width="16.94" height="17.145"/>
			
				<rect x="210.287" y="290.693" transform="matrix(-1 -1.224647e-16 1.224647e-16 -1 437.5149 598.53)" style="fill:#EBEBEB;" width="16.94" height="17.145"/>
			
				<rect x="188.615" y="290.693" transform="matrix(-1 -1.224647e-16 1.224647e-16 -1 394.1699 598.53)" style="fill:#EBEBEB;" width="16.94" height="17.145"/>
			
				<rect x="166.942" y="290.693" transform="matrix(-1 -1.224647e-16 1.224647e-16 -1 350.8249 598.53)" style="fill:#E6E6E6;" width="16.94" height="17.145"/>
			
				<rect x="145.27" y="290.693" transform="matrix(-1 -1.224647e-16 1.224647e-16 -1 307.4799 598.53)" style="fill:#EBEBEB;" width="16.94" height="17.145"/>
			
				<rect x="123.597" y="290.755" transform="matrix(-1 -1.224647e-16 1.224647e-16 -1 264.1349 598.6558)" style="fill:#F5F5F5;" width="16.94" height="17.145"/>
			
				<rect x="101.925" y="290.693" transform="matrix(-1 -1.224647e-16 1.224647e-16 -1 220.79 598.53)" style="fill:#EBEBEB;" width="16.94" height="17.145"/>
			
				<rect x="80.252" y="290.693" transform="matrix(-1 -1.224647e-16 1.224647e-16 -1 177.4451 598.53)" style="fill:#E6E6E6;" width="16.94" height="17.145"/>
			
				<rect x="58.58" y="290.693" transform="matrix(-1 -1.224647e-16 1.224647e-16 -1 134.1001 598.53)" style="fill:#EBEBEB;" width="16.94" height="17.145"/>
			
				<rect x="36.907" y="290.693" transform="matrix(-1 -1.224647e-16 1.224647e-16 -1 90.7551 598.53)" style="fill:#E6E6E6;" width="16.94" height="17.145"/>
			
				<rect x="15.235" y="290.693" transform="matrix(-1 -1.224647e-16 1.224647e-16 -1 47.4101 598.53)" style="fill:#E6E6E6;" width="16.94" height="17.145"/>
			
				<rect x="469.554" y="269.002" transform="matrix(-1 -1.224647e-16 1.224647e-16 -1 956.0493 555.148)" style="fill:#EBEBEB;" width="16.94" height="17.145"/>
			
				<rect x="448.093" y="269.194" transform="matrix(-1 -1.224647e-16 1.224647e-16 -1 913.1263 555.5332)" style="fill:#F5F5F5;" width="16.94" height="17.145"/>
			
				<rect x="427.012" y="269.002" transform="matrix(-1 -1.224647e-16 1.224647e-16 -1 870.9647 555.148)" style="fill:#EBEBEB;" width="16.94" height="17.145"/>
			
				<rect x="405.34" y="269.002" transform="matrix(-1 -1.224647e-16 1.224647e-16 -1 827.6197 555.148)" style="fill:#EBEBEB;" width="16.94" height="17.145"/>
			
				<rect x="383.477" y="269.496" transform="matrix(-1 -1.224647e-16 1.224647e-16 -1 783.8941 556.1358)" style="fill:#F5F5F5;" width="16.94" height="17.145"/>
			
				<rect x="361.995" y="269.002" transform="matrix(-1 -1.224647e-16 1.224647e-16 -1 740.9297 555.148)" style="fill:#EBEBEB;" width="16.94" height="17.145"/>
			
				<rect x="340.322" y="269.303" transform="matrix(-1 -1.224647e-16 1.224647e-16 -1 697.5847 555.7506)" style="fill:#F5F5F5;" width="16.94" height="17.145"/>
			
				<rect x="318.459" y="269.194" transform="matrix(-1 -1.224647e-16 1.224647e-16 -1 653.8592 555.5332)" style="fill:#E6E6E6;" width="16.94" height="17.145"/>
			
				<rect x="296.977" y="269.002" transform="matrix(-1 -1.224647e-16 1.224647e-16 -1 610.8948 555.148)" style="fill:#EBEBEB;" width="16.94" height="17.145"/>
			
				<rect x="275.305" y="269.002" transform="matrix(-1 -1.224647e-16 1.224647e-16 -1 567.5499 555.148)" style="fill:#EBEBEB;" width="16.94" height="17.145"/>
			
				<rect x="253.442" y="269.194" transform="matrix(-1 -1.224647e-16 1.224647e-16 -1 523.8243 555.5332)" style="fill:#E6E6E6;" width="16.94" height="17.145"/>
			
				<rect x="231.96" y="269.002" transform="matrix(-1 -1.224647e-16 1.224647e-16 -1 480.8599 555.148)" style="fill:#EBEBEB;" width="16.94" height="17.145"/>
			
				<rect x="210.287" y="269.002" transform="matrix(-1 -1.224647e-16 1.224647e-16 -1 437.5149 555.148)" style="fill:#E6E6E6;" width="16.94" height="17.145"/>
			
				<rect x="188.615" y="269.303" transform="matrix(-1 -1.224647e-16 1.224647e-16 -1 394.1699 555.7506)" style="fill:#F5F5F5;" width="16.94" height="17.145"/>
			
				<rect x="166.942" y="269.002" transform="matrix(-1 -1.224647e-16 1.224647e-16 -1 350.8249 555.148)" style="fill:#EBEBEB;" width="16.94" height="17.145"/>
			
				<rect x="145.27" y="269.002" transform="matrix(-1 -1.224647e-16 1.224647e-16 -1 307.4799 555.148)" style="fill:#E6E6E6;" width="16.94" height="17.145"/>
			
				<rect x="123.597" y="269.002" transform="matrix(-1 -1.224647e-16 1.224647e-16 -1 264.1349 555.148)" style="fill:#EBEBEB;" width="16.94" height="17.145"/>
			
				<rect x="101.925" y="269.002" transform="matrix(-1 -1.224647e-16 1.224647e-16 -1 220.79 555.148)" style="fill:#E6E6E6;" width="16.94" height="17.145"/>
			
				<rect x="80.252" y="269.002" transform="matrix(-1 -1.224647e-16 1.224647e-16 -1 177.4451 555.148)" style="fill:#EBEBEB;" width="16.94" height="17.145"/>
			
				<rect x="58.58" y="269.002" transform="matrix(-1 -1.224647e-16 1.224647e-16 -1 134.1001 555.148)" style="fill:#E6E6E6;" width="16.94" height="17.145"/>
			
				<rect x="36.907" y="269.065" transform="matrix(-1 -1.224647e-16 1.224647e-16 -1 90.7551 555.2737)" style="fill:#F5F5F5;" width="16.94" height="17.145"/>
			
				<rect x="15.235" y="269.002" transform="matrix(-1 -1.224647e-16 1.224647e-16 -1 47.4101 555.148)" style="fill:#EBEBEB;" width="16.94" height="17.145"/>
		</g>
		<g>
			
				<rect x="469.554" y="376.801" transform="matrix(-1 -1.224647e-16 1.224647e-16 -1 956.0493 770.7461)" style="fill:#EBEBEB;" width="16.94" height="17.145"/>
			
				<rect x="448.283" y="376.801" transform="matrix(-1 -1.224647e-16 1.224647e-16 -1 913.5069 770.7461)" style="fill:#EBEBEB;" width="16.94" height="17.145"/>
			
				<rect x="426.822" y="376.993" transform="matrix(-1 -1.224647e-16 1.224647e-16 -1 870.5841 771.1313)" style="fill:#E6E6E6;" width="16.94" height="17.145"/>
			
				<rect x="405.34" y="376.801" transform="matrix(-1 -1.224647e-16 1.224647e-16 -1 827.6197 770.7461)" style="fill:#EBEBEB;" width="16.94" height="17.145"/>
			
				<rect x="383.477" y="376.993" transform="matrix(-1 -1.224647e-16 1.224647e-16 -1 783.8941 771.1313)" style="fill:#E6E6E6;" width="16.94" height="17.145"/>
			
				<rect x="361.995" y="376.801" transform="matrix(-1 -1.224647e-16 1.224647e-16 -1 740.9297 770.7461)" style="fill:#EBEBEB;" width="16.94" height="17.145"/>
			
				<rect x="340.132" y="376.993" transform="matrix(-1 -1.224647e-16 1.224647e-16 -1 697.2041 771.1313)" style="fill:#E6E6E6;" width="16.94" height="17.145"/>
			
				<rect x="318.65" y="376.801" transform="matrix(-1 -1.224647e-16 1.224647e-16 -1 654.2397 770.7461)" style="fill:#EBEBEB;" width="16.94" height="17.145"/>
			
				<rect x="296.787" y="376.993" transform="matrix(-1 -1.224647e-16 1.224647e-16 -1 610.5143 771.1313)" style="fill:#E6E6E6;" width="16.94" height="17.145"/>
			
				<rect x="275.305" y="377.102" transform="matrix(-1 -1.224647e-16 1.224647e-16 -1 567.5499 771.3487)" style="fill:#F5F5F5;" width="16.94" height="17.145"/>
			
				<rect x="253.632" y="376.801" transform="matrix(-1 -1.224647e-16 1.224647e-16 -1 524.2049 770.7461)" style="fill:#EBEBEB;" width="16.94" height="17.145"/>
			
				<rect x="231.77" y="376.993" transform="matrix(-1 -1.224647e-16 1.224647e-16 -1 480.4793 771.1313)" style="fill:#E6E6E6;" width="16.94" height="17.145"/>
			
				<rect x="210.287" y="376.801" transform="matrix(-1 -1.224647e-16 1.224647e-16 -1 437.5149 770.7461)" style="fill:#EBEBEB;" width="16.94" height="17.145"/>
			
				<rect x="188.615" y="376.801" transform="matrix(-1 -1.224647e-16 1.224647e-16 -1 394.1699 770.7461)" style="fill:#EBEBEB;" width="16.94" height="17.145"/>
			
				<rect x="166.942" y="376.801" transform="matrix(-1 -1.224647e-16 1.224647e-16 -1 350.8249 770.7461)" style="fill:#E6E6E6;" width="16.94" height="17.145"/>
			
				<rect x="145.27" y="376.801" transform="matrix(-1 -1.224647e-16 1.224647e-16 -1 307.4799 770.7461)" style="fill:#EBEBEB;" width="16.94" height="17.145"/>
			
				<rect x="123.597" y="376.863" transform="matrix(-1 -1.224647e-16 1.224647e-16 -1 264.1349 770.8718)" style="fill:#F5F5F5;" width="16.94" height="17.145"/>
			
				<rect x="101.925" y="376.801" transform="matrix(-1 -1.224647e-16 1.224647e-16 -1 220.79 770.7461)" style="fill:#EBEBEB;" width="16.94" height="17.145"/>
			
				<rect x="80.252" y="376.801" transform="matrix(-1 -1.224647e-16 1.224647e-16 -1 177.4451 770.7461)" style="fill:#E6E6E6;" width="16.94" height="17.145"/>
			
				<rect x="58.58" y="376.801" transform="matrix(-1 -1.224647e-16 1.224647e-16 -1 134.1001 770.7461)" style="fill:#EBEBEB;" width="16.94" height="17.145"/>
			
				<rect x="36.907" y="376.801" transform="matrix(-1 -1.224647e-16 1.224647e-16 -1 90.7551 770.7461)" style="fill:#E6E6E6;" width="16.94" height="17.145"/>
			
				<rect x="15.235" y="376.801" transform="matrix(-1 -1.224647e-16 1.224647e-16 -1 47.4101 770.7461)" style="fill:#E6E6E6;" width="16.94" height="17.145"/>
			
				<rect x="469.554" y="355.11" transform="matrix(-1 -1.224647e-16 1.224647e-16 -1 956.0493 727.364)" style="fill:#EBEBEB;" width="16.94" height="17.145"/>
			
				<rect x="448.093" y="355.302" transform="matrix(-1 -1.224647e-16 1.224647e-16 -1 913.1263 727.7492)" style="fill:#F5F5F5;" width="16.94" height="17.145"/>
			
				<rect x="427.012" y="355.11" transform="matrix(-1 -1.224647e-16 1.224647e-16 -1 870.9647 727.364)" style="fill:#EBEBEB;" width="16.94" height="17.145"/>
			
				<rect x="405.34" y="355.11" transform="matrix(-1 -1.224647e-16 1.224647e-16 -1 827.6197 727.364)" style="fill:#EBEBEB;" width="16.94" height="17.145"/>
			
				<rect x="383.477" y="355.603" transform="matrix(-1 -1.224647e-16 1.224647e-16 -1 783.8941 728.3518)" style="fill:#F5F5F5;" width="16.94" height="17.145"/>
			
				<rect x="361.995" y="355.11" transform="matrix(-1 -1.224647e-16 1.224647e-16 -1 740.9297 727.364)" style="fill:#EBEBEB;" width="16.94" height="17.145"/>
			
				<rect x="340.322" y="355.411" transform="matrix(-1 -1.224647e-16 1.224647e-16 -1 697.5847 727.9666)" style="fill:#F5F5F5;" width="16.94" height="17.145"/>
			
				<rect x="318.459" y="355.302" transform="matrix(-1 -1.224647e-16 1.224647e-16 -1 653.8592 727.7492)" style="fill:#E6E6E6;" width="16.94" height="17.145"/>
			
				<rect x="296.977" y="355.11" transform="matrix(-1 -1.224647e-16 1.224647e-16 -1 610.8948 727.364)" style="fill:#EBEBEB;" width="16.94" height="17.145"/>
			
				<rect x="275.305" y="355.11" transform="matrix(-1 -1.224647e-16 1.224647e-16 -1 567.5499 727.364)" style="fill:#EBEBEB;" width="16.94" height="17.145"/>
			
				<rect x="253.442" y="355.302" transform="matrix(-1 -1.224647e-16 1.224647e-16 -1 523.8243 727.7492)" style="fill:#E6E6E6;" width="16.94" height="17.145"/>
			
				<rect x="231.96" y="355.11" transform="matrix(-1 -1.224647e-16 1.224647e-16 -1 480.8599 727.364)" style="fill:#EBEBEB;" width="16.94" height="17.145"/>
			
				<rect x="210.287" y="355.11" transform="matrix(-1 -1.224647e-16 1.224647e-16 -1 437.5149 727.364)" style="fill:#E6E6E6;" width="16.94" height="17.145"/>
			
				<rect x="188.615" y="355.411" transform="matrix(-1 -1.224647e-16 1.224647e-16 -1 394.1699 727.9666)" style="fill:#F5F5F5;" width="16.94" height="17.145"/>
			
				<rect x="166.942" y="355.11" transform="matrix(-1 -1.224647e-16 1.224647e-16 -1 350.8249 727.364)" style="fill:#EBEBEB;" width="16.94" height="17.145"/>
			
				<rect x="145.27" y="355.11" transform="matrix(-1 -1.224647e-16 1.224647e-16 -1 307.4799 727.364)" style="fill:#E6E6E6;" width="16.94" height="17.145"/>
			
				<rect x="123.597" y="355.11" transform="matrix(-1 -1.224647e-16 1.224647e-16 -1 264.1349 727.364)" style="fill:#EBEBEB;" width="16.94" height="17.145"/>
			
				<rect x="101.925" y="355.11" transform="matrix(-1 -1.224647e-16 1.224647e-16 -1 220.79 727.364)" style="fill:#E6E6E6;" width="16.94" height="17.145"/>
			
				<rect x="80.252" y="355.11" transform="matrix(-1 -1.224647e-16 1.224647e-16 -1 177.4451 727.364)" style="fill:#EBEBEB;" width="16.94" height="17.145"/>
			
				<rect x="58.58" y="355.11" transform="matrix(-1 -1.224647e-16 1.224647e-16 -1 134.1001 727.364)" style="fill:#E6E6E6;" width="16.94" height="17.145"/>
			
				<rect x="36.907" y="355.172" transform="matrix(-1 -1.224647e-16 1.224647e-16 -1 90.7551 727.4898)" style="fill:#F5F5F5;" width="16.94" height="17.145"/>
			
				<rect x="15.235" y="355.11" transform="matrix(-1 -1.224647e-16 1.224647e-16 -1 47.4101 727.364)" style="fill:#EBEBEB;" width="16.94" height="17.145"/>
		</g>
		<g>
			<rect x="15.235" y="398.059" style="fill:#EBEBEB;" width="16.94" height="17.145"/>
			<rect x="36.506" y="398.059" style="fill:#EBEBEB;" width="16.94" height="17.145"/>
			<rect x="57.967" y="397.866" style="fill:#E6E6E6;" width="16.94" height="17.145"/>
			<rect x="79.45" y="398.059" style="fill:#EBEBEB;" width="16.94" height="17.145"/>
			<rect x="101.312" y="397.866" style="fill:#E6E6E6;" width="16.94" height="17.145"/>
			<rect x="122.795" y="398.059" style="fill:#EBEBEB;" width="16.94" height="17.145"/>
			<rect x="144.657" y="397.866" style="fill:#E6E6E6;" width="16.94" height="17.145"/>
			<rect x="166.14" y="398.059" style="fill:#EBEBEB;" width="16.94" height="17.145"/>
			<rect x="188.002" y="397.866" style="fill:#E6E6E6;" width="16.94" height="17.145"/>
			<rect x="209.485" y="397.757" style="fill:#F5F5F5;" width="16.94" height="17.145"/>
			<rect x="231.157" y="398.059" style="fill:#EBEBEB;" width="16.94" height="17.145"/>
			<rect x="253.02" y="397.866" style="fill:#E6E6E6;" width="16.94" height="17.145"/>
			<rect x="274.502" y="398.059" style="fill:#EBEBEB;" width="16.94" height="17.145"/>
			<rect x="296.175" y="398.059" style="fill:#EBEBEB;" width="16.94" height="17.145"/>
			<rect x="317.847" y="398.059" style="fill:#E6E6E6;" width="16.94" height="17.145"/>
			<rect x="339.52" y="398.059" style="fill:#EBEBEB;" width="16.94" height="17.145"/>
			<rect x="361.192" y="397.996" style="fill:#F5F5F5;" width="16.94" height="17.145"/>
			<rect x="382.865" y="398.059" style="fill:#EBEBEB;" width="16.94" height="17.145"/>
			<rect x="404.537" y="398.059" style="fill:#E6E6E6;" width="16.94" height="17.145"/>
			<rect x="426.21" y="398.059" style="fill:#EBEBEB;" width="16.94" height="17.145"/>
			<rect x="447.882" y="398.059" style="fill:#E6E6E6;" width="16.94" height="17.145"/>
			<rect x="469.554" y="398.059" style="fill:#E6E6E6;" width="16.94" height="17.145"/>
			<rect x="15.235" y="419.75" style="fill:#EBEBEB;" width="16.94" height="17.145"/>
			<rect x="36.696" y="419.557" style="fill:#F5F5F5;" width="16.94" height="17.145"/>
			<rect x="57.777" y="419.75" style="fill:#EBEBEB;" width="16.94" height="17.145"/>
			<rect x="79.45" y="419.75" style="fill:#EBEBEB;" width="16.94" height="17.145"/>
			<rect x="101.312" y="419.256" style="fill:#F5F5F5;" width="16.94" height="17.145"/>
			<rect x="122.795" y="419.75" style="fill:#EBEBEB;" width="16.94" height="17.145"/>
			<rect x="144.467" y="419.448" style="fill:#F5F5F5;" width="16.94" height="17.145"/>
			<rect x="166.33" y="419.557" style="fill:#E6E6E6;" width="16.94" height="17.145"/>
			<rect x="187.812" y="419.75" style="fill:#EBEBEB;" width="16.94" height="17.145"/>
			<rect x="209.485" y="419.75" style="fill:#EBEBEB;" width="16.94" height="17.145"/>
			<rect x="231.347" y="419.557" style="fill:#E6E6E6;" width="16.94" height="17.145"/>
			<rect x="252.83" y="419.75" style="fill:#EBEBEB;" width="16.94" height="17.145"/>
			<rect x="274.502" y="419.75" style="fill:#E6E6E6;" width="16.94" height="17.145"/>
			<rect x="296.175" y="419.448" style="fill:#F5F5F5;" width="16.94" height="17.145"/>
			<rect x="317.847" y="419.75" style="fill:#EBEBEB;" width="16.94" height="17.145"/>
			<rect x="339.52" y="419.75" style="fill:#E6E6E6;" width="16.94" height="17.145"/>
			<rect x="361.192" y="419.75" style="fill:#EBEBEB;" width="16.94" height="17.145"/>
			<rect x="382.865" y="419.75" style="fill:#E6E6E6;" width="16.94" height="17.145"/>
			<rect x="404.537" y="419.75" style="fill:#EBEBEB;" width="16.94" height="17.145"/>
			<rect x="426.21" y="419.75" style="fill:#E6E6E6;" width="16.94" height="17.145"/>
			<rect x="447.882" y="419.687" style="fill:#F5F5F5;" width="16.94" height="17.145"/>
			<rect x="469.554" y="419.75" style="fill:#EBEBEB;" width="16.94" height="17.145"/>
		</g>
		<g>
			<rect x="15.235" y="441.593" style="fill:#EBEBEB;" width="16.94" height="17.145"/>
			<rect x="36.506" y="441.593" style="fill:#EBEBEB;" width="16.94" height="17.145"/>
			<rect x="57.967" y="441.4" style="fill:#E6E6E6;" width="16.94" height="17.145"/>
			<rect x="79.45" y="441.593" style="fill:#EBEBEB;" width="16.94" height="17.145"/>
			<rect x="101.312" y="441.4" style="fill:#E6E6E6;" width="16.94" height="17.145"/>
			<rect x="122.795" y="441.593" style="fill:#EBEBEB;" width="16.94" height="17.145"/>
			<rect x="144.657" y="441.4" style="fill:#E6E6E6;" width="16.94" height="17.145"/>
			<rect x="166.14" y="441.593" style="fill:#EBEBEB;" width="16.94" height="17.145"/>
			<rect x="188.002" y="441.4" style="fill:#E6E6E6;" width="16.94" height="17.145"/>
			<rect x="209.485" y="441.292" style="fill:#F5F5F5;" width="16.94" height="17.145"/>
			<rect x="231.157" y="441.593" style="fill:#EBEBEB;" width="16.94" height="17.145"/>
			<rect x="253.02" y="441.4" style="fill:#E6E6E6;" width="16.94" height="17.145"/>
			<rect x="274.502" y="441.593" style="fill:#EBEBEB;" width="16.94" height="17.145"/>
			<rect x="296.175" y="441.593" style="fill:#EBEBEB;" width="16.94" height="17.145"/>
			<rect x="317.847" y="441.593" style="fill:#E6E6E6;" width="16.94" height="17.145"/>
			<rect x="339.52" y="441.593" style="fill:#EBEBEB;" width="16.94" height="17.145"/>
			<rect x="361.192" y="441.53" style="fill:#F5F5F5;" width="16.94" height="17.145"/>
			<rect x="382.865" y="441.593" style="fill:#EBEBEB;" width="16.94" height="17.145"/>
			<rect x="404.537" y="441.593" style="fill:#E6E6E6;" width="16.94" height="17.145"/>
			<rect x="426.21" y="441.593" style="fill:#EBEBEB;" width="16.94" height="17.145"/>
			<rect x="447.882" y="441.593" style="fill:#E6E6E6;" width="16.94" height="17.145"/>
			<rect x="469.554" y="441.593" style="fill:#E6E6E6;" width="16.94" height="17.145"/>
		</g>
		<g>
			<rect x="15.235" y="312.357" style="fill:#EBEBEB;" width="16.94" height="17.145"/>
			<rect x="36.506" y="312.357" style="fill:#EBEBEB;" width="16.94" height="17.145"/>
			<rect x="57.967" y="312.164" style="fill:#E6E6E6;" width="16.94" height="17.145"/>
			<rect x="79.45" y="312.357" style="fill:#EBEBEB;" width="16.94" height="17.145"/>
			<rect x="101.312" y="312.164" style="fill:#E6E6E6;" width="16.94" height="17.145"/>
			<rect x="122.795" y="312.357" style="fill:#EBEBEB;" width="16.94" height="17.145"/>
			<rect x="144.657" y="312.164" style="fill:#E6E6E6;" width="16.94" height="17.145"/>
			<rect x="166.14" y="312.357" style="fill:#EBEBEB;" width="16.94" height="17.145"/>
			<rect x="188.002" y="312.164" style="fill:#E6E6E6;" width="16.94" height="17.145"/>
			<rect x="209.485" y="312.056" style="fill:#F5F5F5;" width="16.94" height="17.145"/>
			<rect x="231.157" y="312.357" style="fill:#EBEBEB;" width="16.94" height="17.145"/>
			<rect x="253.02" y="312.164" style="fill:#E6E6E6;" width="16.94" height="17.145"/>
			<rect x="274.502" y="312.357" style="fill:#EBEBEB;" width="16.94" height="17.145"/>
			<rect x="296.175" y="312.357" style="fill:#EBEBEB;" width="16.94" height="17.145"/>
			<rect x="317.847" y="312.357" style="fill:#E6E6E6;" width="16.94" height="17.145"/>
			<rect x="339.52" y="312.357" style="fill:#EBEBEB;" width="16.94" height="17.145"/>
			<rect x="361.192" y="312.294" style="fill:#F5F5F5;" width="16.94" height="17.145"/>
			<rect x="382.865" y="312.357" style="fill:#EBEBEB;" width="16.94" height="17.145"/>
			<rect x="404.537" y="312.357" style="fill:#E6E6E6;" width="16.94" height="17.145"/>
			<rect x="426.21" y="312.357" style="fill:#EBEBEB;" width="16.94" height="17.145"/>
			<rect x="447.882" y="312.357" style="fill:#E6E6E6;" width="16.94" height="17.145"/>
			<rect x="469.554" y="312.357" style="fill:#E6E6E6;" width="16.94" height="17.145"/>
			<rect x="15.235" y="334.048" style="fill:#EBEBEB;" width="16.94" height="17.145"/>
			<rect x="36.696" y="333.855" style="fill:#F5F5F5;" width="16.94" height="17.145"/>
			<rect x="57.777" y="334.048" style="fill:#EBEBEB;" width="16.94" height="17.145"/>
			<rect x="79.45" y="334.048" style="fill:#EBEBEB;" width="16.94" height="17.145"/>
			<rect x="101.313" y="333.554" style="fill:#F5F5F5;" width="16.94" height="17.145"/>
			<rect x="122.795" y="334.048" style="fill:#EBEBEB;" width="16.94" height="17.145"/>
			<rect x="144.467" y="333.747" style="fill:#F5F5F5;" width="16.94" height="17.145"/>
			<rect x="166.33" y="333.855" style="fill:#E6E6E6;" width="16.94" height="17.145"/>
			<rect x="187.812" y="334.048" style="fill:#EBEBEB;" width="16.94" height="17.145"/>
			<rect x="209.485" y="334.048" style="fill:#EBEBEB;" width="16.94" height="17.145"/>
			<rect x="231.347" y="333.855" style="fill:#E6E6E6;" width="16.94" height="17.145"/>
			<rect x="252.83" y="334.048" style="fill:#EBEBEB;" width="16.94" height="17.145"/>
			<rect x="274.502" y="334.048" style="fill:#E6E6E6;" width="16.94" height="17.145"/>
			<rect x="296.175" y="333.747" style="fill:#F5F5F5;" width="16.94" height="17.145"/>
			<rect x="317.847" y="334.048" style="fill:#EBEBEB;" width="16.94" height="17.145"/>
			<rect x="339.52" y="334.048" style="fill:#E6E6E6;" width="16.94" height="17.145"/>
			<rect x="361.192" y="334.048" style="fill:#EBEBEB;" width="16.94" height="17.145"/>
			<rect x="382.865" y="334.048" style="fill:#E6E6E6;" width="16.94" height="17.145"/>
			<rect x="404.537" y="334.048" style="fill:#EBEBEB;" width="16.94" height="17.145"/>
			<rect x="426.21" y="334.048" style="fill:#E6E6E6;" width="16.94" height="17.145"/>
			<rect x="447.882" y="333.985" style="fill:#F5F5F5;" width="16.94" height="17.145"/>
			<rect x="469.554" y="334.048" style="fill:#EBEBEB;" width="16.94" height="17.145"/>
		</g>
		<rect x="15.086" y="208.963" style="fill:#E0E0E0;" width="477.188" height="13.454"/>
	</g>
	<g>
		<g>
			<g>
				<g>
					<g>
						<path style="fill:#E0E0E0;" d="M443.92,330.198H263.174c-3.232,0-5.862-2.63-5.862-5.862V61.062
							c0-3.232,2.63-5.862,5.862-5.862H443.92c3.232,0,5.862,2.629,5.862,5.862v263.273
							C449.783,327.568,447.153,330.198,443.92,330.198z M263.174,55.45c-3.095,0-5.612,2.518-5.612,5.612v263.273
							c0,3.095,2.518,5.612,5.612,5.612H443.92c3.095,0,5.612-2.518,5.612-5.612V61.062c0-3.094-2.518-5.612-5.612-5.612H263.174z"
							/>
					</g>
				</g>
				<g>
					<g>
						<path style="fill:#E0E0E0;" d="M235.493,330.198H54.746c-3.232,0-5.862-2.63-5.862-5.862V61.062
							c0-3.232,2.629-5.862,5.862-5.862h180.747c3.232,0,5.862,2.629,5.862,5.862v263.273
							C241.355,327.568,238.725,330.198,235.493,330.198z M54.746,55.45c-3.094,0-5.612,2.518-5.612,5.612v263.273
							c0,3.095,2.518,5.612,5.612,5.612h180.747c3.095,0,5.612-2.518,5.612-5.612V61.062c0-3.094-2.518-5.612-5.612-5.612H54.746z"
							/>
					</g>
				</g>
			</g>
			<g>
				<g>
					<rect x="0" y="391.267" style="fill:#E0E0E0;" width="500" height="0.25"/>
				</g>
			</g>
		</g>
		<rect x="51.672" y="405.531" style="fill:#E0E0E0;" width="16.06" height="0.25"/>
		<rect x="170.352" y="402.821" style="fill:#E0E0E0;" width="53.53" height="0.25"/>
		<rect x="68.732" y="414.821" style="fill:#E0E0E0;" width="36.25" height="0.25"/>
		<rect x="378.352" y="402.691" style="fill:#E0E0E0;" width="43.19" height="0.25"/>
		<rect x="430.452" y="402.691" style="fill:#E0E0E0;" width="6.33" height="0.25"/>
		<rect x="316.212" y="408.921" style="fill:#E0E0E0;" width="53.89" height="0.25"/>
	</g>
</g>
<g id="Background_simple" style="display:none;">
	<g style="display:inline;">
		<g>
			<path style="fill:#407BFF;" d="M448.836,101.013c-2.893-44.893-39.254-63.879-66.622-70.184
				c-27.368-6.305-57.181-1.203-80.894,13.844c-26.327,16.705-46.341,45.377-76.876,51.679
				c-24.295,5.014-48.665-5.649-72.773-11.498c-24.107-5.849-54.19-4.657-67.843,16.054c-12.262,18.6-4.84,44.19,8.268,62.203
				c17.011,23.378,45.595,44.883,72.895,54.406c27.299,9.523,49.853,20.9,78.765,21.108c46.091,0.331,101.296-7.524,140.878-31.143
				C424.213,183.865,448.742,147.106,448.836,101.013z"/>
		</g>
		<g style="opacity:0.9;">
			<path style="fill:#FFFFFF;" d="M448.836,101.013c-2.893-44.893-39.254-63.879-66.622-70.184
				c-27.368-6.305-57.181-1.203-80.894,13.844c-26.327,16.705-46.341,45.377-76.876,51.679
				c-24.295,5.014-48.665-5.649-72.773-11.498c-24.107-5.849-54.19-4.657-67.843,16.054c-12.262,18.6-4.84,44.19,8.268,62.203
				c17.011,23.378,45.595,44.883,72.895,54.406c27.299,9.523,49.853,20.9,78.765,21.108c46.091,0.331,101.296-7.524,140.878-31.143
				C424.213,183.865,448.742,147.106,448.836,101.013z"/>
		</g>
	</g>
</g>
<g id="Shadow">
	<g>
		<g>
			<path style="fill:#F5F5F5;" d="M460.772,469.798c0,3.387-93.517,6.132-208.875,6.132s-208.875-2.745-208.875-6.132
				c0-3.387,93.516-6.132,208.875-6.132S460.772,466.412,460.772,469.798z"/>
		</g>
	</g>
</g>
<g id="Splash">
	<g>
		<g style="opacity:0.5;">
			<path style="fill:#407BFF;" d="M148.671,243.926c-9.195-7.414-27.122-15.835-38.559-18.784c-2.641-0.681-5.407-1.166-8.087-0.661
				c-2.68,0.504-5.276,2.166-6.255,4.711c-0.98,2.545,0.155,5.9,2.725,6.813c-3.259-0.891-6.588-1.791-9.961-1.592
				c-3.372,0.198-6.856,1.693-8.579,4.599c-1.722,2.906-1.005,7.274,1.996,8.827c-1.992-1.715-5.207-1.791-7.277-0.171
				s-2.77,4.758-1.585,7.104c-2.226-1.508-4.497-3.059-6.09-5.224c-1.593-2.165-2.405-5.102-1.386-7.59
				c1.019-2.488,4.259-4.046,6.588-2.703c-3.347-3.02-6.758-6.12-8.914-10.08c-2.155-3.96-2.852-9.012-0.627-12.932
				c2.647-4.662,8.754-6.456,14.035-5.533c5.281,0.923,9.904,4.011,14.213,7.201c-2.092-2.098-1.944-5.747-0.257-8.182
				c1.687-2.435,4.546-3.813,7.422-4.525c8.932-2.21,18.508,1.216,25.767,6.871C131.098,217.729,143.42,236.37,148.671,243.926"/>
		</g>
		<g style="opacity:0.5;">
			<path style="fill:#407BFF;" d="M73.635,189.442c-1.017-0.598-2.274-1.126-3.339-0.616c-0.874,0.419-1.325,1.453-1.302,2.422
				c0.023,0.969,0.437,1.884,0.905,2.733c2.566,4.645,10.444,10.807,14.459,9.781C82.865,197.824,78.912,192.546,73.635,189.442z"/>
		</g>
		<g style="opacity:0.5;">
			<path style="fill:#407BFF;" d="M97.856,190.458c-0.445-0.261-0.994-0.492-1.459-0.269c-0.382,0.183-0.579,0.635-0.569,1.058
				c0.01,0.423,0.191,0.824,0.396,1.194c1.121,2.03,4.564,4.723,6.319,4.274C101.889,194.121,100.162,191.814,97.856,190.458z"/>
		</g>
	</g>
</g>
<g id="Character">
	<g>
		<path style="fill:#FFB5AF;" d="M231.921,320.57c-7.705,6.612-121.029,23.671-144.621,14.073
			c-23.33-9.492,2.953-23.385,13.771-26.914c10.819-3.53,29.162-6.447,50.221-22.927c15.517-12.143,34.47-15.413,42.258-15.392
			c8.577,0.023,20,2.699,20,2.699c8.679,13.992,23.232,44.623,23.232,44.623L231.921,320.57z"/>
		<g>
			<path style="fill:#FFB5AF;" d="M441.029,275.793c0.277,0.282,4.416,2.339,6.022,2.943c1.606,0.603,14.342,0.71,13.634-0.858
				c-0.708-1.568-1.272-1.861-4.037-2.235c-2.764-0.374-5.347-0.469-4.65-1.169c0.696-0.7,8.877-1.759,11.146-0.949
				c2.269,0.809,6.329,2.41,7.435,0.999c1.105-1.41-0.58-2.47-0.58-2.47s2.302-0.096,1.488-1.396
				c-0.814-1.3-6.661-6.412-9.415-7.058c-2.754-0.646-18.368,2.027-21.296,2.217c-0.88,0.057-6.363,1.367-6.363,1.367l-3.81,9.534
				L441.029,275.793z"/>
		</g>
		<path style="fill:#FFB5AF;" d="M305.564,282.537l0.607-29.408c5.431,0.595,11.041,0.94,16.649,1.358l16.9,1.074
			c11.316,0.767,22.606,1.478,34.127,2.975l2.161,0.3l2.187,0.357l2.201,0.357l2.224,0.469c0.737,0.144,1.514,0.327,2.141,0.428
			c0.672,0.104,1.351,0.135,2.03,0.091c1.361-0.178,2.728-0.227,4.089-0.148c2.674,0.434,5.355,1.034,8.059,1.433
			c1.392,0.247,2.717,0.417,4.083,0.608c1.366,0.191,2.718,0.399,4.084,0.59c10.935,1.433,22.105,2.323,33.171,3.024l0.36,9.465
			c-2.837,0.684-5.669,1.277-8.498,1.777l-4.241,0.713c-1.413,0.213-2.825,0.427-4.236,0.603
			c-5.647,0.779-11.424,1.331-17.175,1.608c-2.814,0.169-5.763,0.239-8.652,0.22c-1.4-0.063-2.891,0.018-4.347-0.048l-2.17-0.098
			c-0.728-0.033-1.4-0.063-2.184-0.098c-1.451-0.267-2.878-0.708-4.262-1.317c-0.706-0.251-1.423-0.45-2.148-0.595
			c-0.765-0.145-1.395-0.173-2.025-0.22l-1.942-0.18l-4.004-0.18l-2.03-0.091c-5.439-0.097-10.975,0.078-16.517,0.383l-29.485,2.365
			l0,0l-4.031,0.409L305.564,282.537z"/>
		<path style="opacity:0.2;" d="M329.641,254.921c0,0-5.41,25.684-5.419,25.684c-0.009,0.001-2.962,0.432-2.962,0.432l2.116-26.512
			L329.641,254.921z"/>
		<path style="opacity:0.2;" d="M103.008,307.125c0,0,14.496,13.702,40.734,13.462c26.238-0.239,30.433-6.901,30.433-6.901
			l-62.456-9.745L103.008,307.125z"/>
		<path style="fill:#FFB5AF;" d="M227.279,314.751c-10.03,4.577-122.613-4.315-144.404-21.973
			c-21.548-17.461-2.792-34.358,9.572-34.677c12.363-0.319,39.662,5.847,66.6-4.971c19.85-7.971,35.285-7.312,43.418-4.823
			c8.958,2.741,20.098,9.199,20.098,9.199c4.888,17.597,10.943,54.712,10.943,54.712L227.279,314.751z"/>
		<path style="opacity:0.2;" d="M333.437,255.162c0.191,0.012,3.508,5.81,13.109,5.876c8.551,0.058,11.901-4.118,11.901-4.118
			L333.437,255.162z"/>
		<g>
			<path style="fill:#407BFF;" d="M222.742,258.13l6.288,63.336c0,0,21.035-5.524,47.682-13.134
				c16.501-4.712,39.648-5.747,45.333-30.834l1.51-17.702c-1.319-9.172-2.782-11.313-4.725-15.7
				c-2.138-4.827-9.312-13.945-14.585-13.674c-8.748,0.45-23.099,7.355-46.846,21.761
				C247.224,258.356,231.519,257.575,222.742,258.13z"/>
			<path style="fill:#407BFF;" d="M200.693,247.824c0,0,0.781,46.67-26.519,65.863c13.82,6.008,29.345,9.653,45.947,11.807
				l21.681-7.584c0,0,1.456-59.319,0-59.368C240.346,258.493,212.041,248.58,200.693,247.824z"/>
			<g>
				<g>
					<path style="fill:#FFFFFF;" d="M201.562,253.777c9.38,2.544,18.786,5.006,28.228,7.308c5.45,1.329,10.873,3.11,16.515,2.054
						c5.884-1.1,11.419-3.947,16.47-7.066c3.175-1.96,6.294-4.098,9.163-6.49c0.371-0.31-0.162-0.838-0.53-0.53
						c-2.337,1.949-4.857,3.704-7.407,5.358c-4.907,3.181-10.21,6.074-15.9,7.557c-2.746,0.716-5.668,1.108-8.488,0.613
						c-2.815-0.494-5.605-1.247-8.382-1.917c-6.174-1.491-12.327-3.073-18.471-4.684c-3.67-0.962-7.337-1.933-10.999-2.926
						C201.295,252.927,201.096,253.651,201.562,253.777L201.562,253.777z"/>
				</g>
			</g>
			<g>
				<g>
					<path style="fill:#FFFFFF;" d="M201.432,250.638c9.38,2.544,18.786,5.006,28.228,7.308c5.45,1.329,10.873,3.11,16.515,2.054
						c5.884-1.1,11.419-3.947,16.47-7.066c3.175-1.96,6.294-4.098,9.163-6.49c0.371-0.309-0.162-0.838-0.53-0.53
						c-2.337,1.949-4.857,3.704-7.407,5.358c-4.907,3.181-10.21,6.074-15.9,7.557c-2.746,0.716-5.668,1.108-8.488,0.613
						c-2.814-0.494-5.605-1.247-8.382-1.917c-6.174-1.491-12.327-3.073-18.471-4.684c-3.67-0.962-7.338-1.933-10.999-2.926
						C201.165,249.788,200.966,250.512,201.432,250.638L201.432,250.638z"/>
				</g>
			</g>
			<g>
				<path style="opacity:0.6;fill:#FFFFFF;" d="M279.483,266.025c-3.425-1.644-39.88,8.247-42.701,11.978
					c-2.299,3.04,4.534,22.698,7.218,30.099c0.581,1.602,2.272,2.507,3.928,2.103c9.665-2.36,40.268-9.874,41.421-10.681
					C290.718,298.565,282.908,267.669,279.483,266.025z"/>
				<path style="fill:#263238;" d="M279.483,266.025c-1.078-0.517-5.983,0.313-12.285,1.809l0,0l9.427,35.211l0.001,0
					c6.986-1.79,12.282-3.213,12.722-3.521C290.718,298.565,282.908,267.669,279.483,266.025z"/>
				<g>
					<path style="fill:#263238;" d="M261.087,279.979l-11.744,3.489l-0.807-2.718l9.562-2.842l-0.698-2.35l2.181-0.647
						L261.087,279.979z"/>
					<path style="fill:#263238;" d="M254.772,293.631l-2.214,0.658l-2.637-8.875l1.762-0.523l5.623,3.259
						c1.3,0.745,1.958,0.751,2.529,0.582c0.922-0.274,1.27-1.07,0.901-2.313c-0.299-1.006-0.939-1.747-1.898-2.083l0.688-2.358
						c1.594,0.513,2.939,1.901,3.566,4.015c0.778,2.618-0.046,4.762-2.177,5.395c-1.141,0.339-2.276,0.329-4.291-0.861l-3.353-1.942
						L254.772,293.631z"/>
					<path style="fill:#263238;" d="M259.059,303.02c-1.979,0.589-4.245-0.4-5.237-3.739c-0.488-1.644-0.539-3.473-0.073-4.854
						l2.395,0.438c-0.407,1.089-0.423,2.445-0.06,3.671c0.404,1.358,1.206,2.033,2.163,1.748c0.889-0.264,1.248-1.082,0.79-2.625
						l-0.369-1.242l1.795-0.534l3.453,1.603l-1.485-5l2.181-0.647l2.443,8.222l-1.762,0.524l-3.808-1.755
						C261.777,301.044,260.787,302.507,259.059,303.02z"/>
				</g>
				<path style="opacity:0.6;fill:#FFFFFF;" d="M285.87,267.449c0.599,0.479,6.52,26.278,8.113,27.918
					c1.593,1.64,3.987-0.119,3.987-0.119s-7.188-29.577-8.306-29.237C288.545,266.351,285.87,267.449,285.87,267.449z"/>
			</g>
		</g>
		<g>
			<g>
				<g>
					<g>
						<g>
							<path style="fill:#FFB5AF;" d="M323.427,260.22c0.719-4.683,0.841-5.495,4.069-7.56c1.812-1.19,3.972-2.098,6.173-2.866
								l-0.912-4.635l1.128-20.474c-5.519,7.213-10.387,14.771-19.401,12.671C314.483,237.358,310.362,261.54,323.427,260.22z"/>
							<path style="opacity:0.2;" d="M326.802,253.13c-0.914-4.525-0.802-10.496,3.012-13.24c1.615-1.146,3.281-2.081,4.483-2.532
								l-2.513,13.139C330.064,251.159,329.058,251.742,326.802,253.13z"/>
							<path style="fill:#FFB5AF;" d="M343.943,211.738c-10.09,10.952-14.58,15.363-15.217,26.254
								c-0.958,16.382,13.835,26.881,26.784,19.286c11.655-6.836,26.198-23.596,21.059-38.576
								C371.506,203.944,354.034,200.786,343.943,211.738z"/>
							<path style="fill:#263238;" d="M353.491,229.087c-1.115,1.106-1.501,2.6-0.862,3.338c0.639,0.737,2.06,0.437,3.176-0.669
								c1.115-1.106,1.501-2.6,0.862-3.337C356.027,227.681,354.606,227.981,353.491,229.087z"/>
							<path style="fill:#263238;" d="M363.33,239.906c-1.078,1.074-1.436,2.541-0.8,3.276c0.637,0.734,2.028,0.46,3.106-0.615
								c1.078-1.074,1.436-2.541,0.799-3.276C365.799,238.556,364.408,238.832,363.33,239.906z"/>
							<path style="fill:#263238;" d="M355.47,223.127c0.111,0.154,0.28,0.26,0.479,0.278c3.101,0.276,4.275,2.683,4.289,2.711
								c0.173,0.357,0.592,0.499,0.939,0.303c0.346-0.197,0.487-0.65,0.315-1.015c-0.061-0.127-1.532-3.149-5.38-3.491
								c-0.384-0.034-0.731,0.272-0.776,0.684C355.313,222.795,355.366,222.982,355.47,223.127z"/>
							<path style="fill:#263238;" d="M372.148,238.565c0.137,0.077,0.303,0.095,0.468,0.035c0.34-0.125,0.545-0.534,0.46-0.912
								c-0.86-3.792-3.619-4.685-3.737-4.72c-0.332-0.102-0.692,0.127-0.806,0.512c-0.114,0.385,0.063,0.779,0.393,0.883
								c0.109,0.033,2.237,0.761,2.919,3.777C371.89,238.334,372.003,238.483,372.148,238.565z"/>
							<path style="fill:#FF726E;" d="M361.198,236.47c0,0-2.562,5.443-3.374,9.705c-0.142,0.745-0.987,1.127-1.658,0.775
								c-1.728-0.907-2.712-2.905-2.712-2.905L361.198,236.47z"/>
						</g>
						<path style="fill:#263238;" d="M356.244,228.047l2.879,1.986C359.122,230.033,355.992,230.354,356.244,228.047z"/>
						<path style="fill:#263238;" d="M366.175,239.055l2.879,1.986C369.054,241.041,365.923,241.362,366.175,239.055z"/>
						<path style="fill:#263238;" d="M340.496,222.413c0,0,14.343-4.972,16.479-10.328c2.135-5.356-11.33-3.248-11.751-3.142
							c-0.421,0.105-5.791,5.265-5.791,5.265l1.064,7.702"/>
						<path style="fill:#263238;" d="M340.496,222.413c0,0,14.343-4.972,16.479-10.328c2.135-5.356-11.33-3.248-11.751-3.142
							c-0.421,0.105-5.791,5.265-5.791,5.265l1.064,7.702"/>
						<path style="fill:#FFB5AF;" d="M332.218,216.376c-1.082,3.339-0.59,6.731,0.674,9.106c1.902,3.572,7.943,0.844,9.962-2.787
							c1.817-3.269,0.969-7.701-2.165-10.018C337.602,210.395,333.455,212.559,332.218,216.376z"/>
					</g>
					<path style="fill:#263238;" d="M348.639,239.935c-0.097-0.095-0.22-0.163-0.362-0.191c-0.381-0.076-0.746,0.172-0.813,0.554
						c-0.674,3.835,1.677,6.114,1.77,6.23c0.284,0.272,0.728,0.267,0.992-0.011c0.264-0.278,0.25-0.721-0.029-0.994
						c-0.102-0.091-1.891-1.87-1.35-4.948C348.89,240.333,348.804,240.096,348.639,239.935z"/>
					
						<path style="opacity:0.2;fill:none;stroke:#000000;stroke-width:0.5;stroke-linecap:round;stroke-linejoin:round;stroke-miterlimit:10;" d="
						M337.176,214.766c1.086-0.171,2.209,0.527,2.772,1.498c0.563,0.971,0.64,2.153,0.464,3.244
						c-0.212,1.31-0.772,2.553-1.607,3.564"/>
				</g>
			</g>
			<path style="fill:#407BFF;" d="M375.85,209.487c-14.825-20.259-49.523-17.078-48.659,23.456c0,0,9.985-12.115,16.509-15.348
				c0,0,15.035-4.035,24.798,0.647c12.452,5.972,4.611,19.507,4.611,19.507c-0.733,3.26-2.569,5.627-4.388,8.337
				C368.722,246.086,391.469,230.831,375.85,209.487z"/>
			<path style="fill:#407BFF;" d="M358.447,233.991c0,0,2.135-0.057,3.229,1.111c1.094,1.169,0.27,3.573,0.28,3.533
				c0.01-0.04,2.526-2.621,2.526-2.621l-4.151-5.253C360.332,230.762,359.333,233.228,358.447,233.991z"/>
			<g>
				<path style="fill:#263238;" d="M360.751,230.944c-0.043-0.576-0.34-1.099-0.647-1.589c-1.794-2.869-4.142-5.391-6.877-7.383
					c-0.55-0.4-1.153-0.793-1.832-0.829c-0.679-0.036-1.725,0.631-2.337,1.412c-1.257,2.058-1.667,4.645-0.983,6.958
					c0.684,2.313,2.486,4.295,4.768,5.077c2.282,0.782,4.984,0.289,6.764-1.339C360.263,232.651,360.817,231.831,360.751,230.944z"
					/>
			</g>
			<g>
				<path style="fill:#263238;" d="M372.988,241.91c-0.149-0.544-0.52-0.985-0.893-1.394c-2.184-2.392-3.822-3.496-6.697-4.859
					c-0.578-0.274-1.203-0.53-1.83-0.428c-0.627,0.102-1.454,0.95-1.864,1.822c-0.755,2.225-0.707,4.829,0.429,6.868
					c1.144,2.054,2.776,3.013,5.007,3.306c2.231,0.293,3.929-0.957,5.243-2.874C372.868,243.644,373.217,242.747,372.988,241.91z"/>
			</g>
			<polygon style="fill:#407BFF;" points="349.059,222.555 337.176,203.336 339.432,201.52 351.395,221.143 			"/>
			<polygon style="opacity:0.4;fill:#FFFFFF;" points="349.059,222.555 337.176,203.336 339.432,201.52 351.395,221.143 			"/>
			<g style="opacity:0.4;">
				<path style="fill:#FFFFFF;" d="M365.728,208.776c-2.794,0.043-5.597,0.086-8.374-0.225c-0.655-0.073-1.321-0.171-1.908-0.469
					c-0.587-0.298-1.09-0.835-1.185-1.487c-0.094-0.652,0.329-1.385,0.979-1.49c-1.6-0.127-3.201-0.254-4.802-0.381
					c-0.664-0.053-1.339-0.108-1.957-0.355c-0.618-0.247-1.182-0.719-1.372-1.357c-0.19-0.638,0.1-1.431,0.724-1.663
					c0,0-3.362,1.108-0.781,3.168c2.58,2.06,6.402,1.359,6.402,1.359s-1.96,3.447,2.449,3.904
					C360.311,210.237,365.728,208.776,365.728,208.776z"/>
			</g>
			<g style="opacity:0.2;">
				<path style="fill:#FFFFFF;" d="M357.637,228.174c-1.134-1.762-2.475-3.571-4.451-4.271c-2.23-0.294-3.35,1.294-3.829,2.923
					c-0.479,1.629,0.035,3.473,1.177,4.73c1.142,1.257,2.846,1.937,4.544,1.977c0.718,0.017,1.452-0.078,2.099-0.388
					c0.647-0.311,1.202-0.858,1.417-1.543C358.962,230.431,358.301,229.207,357.637,228.174z"/>
			</g>
			<g style="opacity:0.2;">
				<path style="fill:#FFFFFF;" d="M370.029,239.875c-1.433-1.399-3.069-2.795-5.054-3.022c-2.133,0.206-2.829,1.927-2.922,3.548
					c-0.092,1.621,0.784,3.229,2.115,4.155c1.331,0.925,3.06,1.193,4.644,0.865c0.67-0.139,1.331-0.385,1.864-0.814
					c0.534-0.429,0.93-1.058,0.982-1.743C371.747,241.693,370.869,240.694,370.029,239.875z"/>
			</g>
			<g>
				<g>
					<path style="fill:#407BFF;" d="M326.313,216.576c0.916-3.984,2.36-7.849,4.691-11.231c2.472-3.587,5.853-6.364,9.682-8.401
						c0.426-0.227,0.048-0.874-0.379-0.648c-3.866,2.057-7.263,4.859-9.797,8.449c-2.454,3.477-3.971,7.505-4.92,11.631
						C325.481,216.847,326.204,217.047,326.313,216.576L326.313,216.576z"/>
				</g>
			</g>
		</g>
		<g>
			<g>
				<path style="fill:#FFB5AF;" d="M305.954,231.958c0,0-24.727-55.524-45.709-50.363c-20.982,5.161-49.705,33.405-49.705,33.405
					l6.18,7.681c0,0,34.288-19.345,40.921-19.77c6.632-0.425,19.966,38.865,19.966,38.865L305.954,231.958z"/>
				<path style="fill:#FFB5AF;" d="M267.666,246.086c0,0,2.078,4.834,19.768,1.943s24.07-13.905,23.912-14.019
					c-0.157-0.113-3.757-6.857-9.151-9.803C295.086,220.324,267.666,246.086,267.666,246.086z"/>
				<g>
					<path style="fill:#FFB5AF;" d="M216.72,222.681c-0.072,0.389-2.356,4.407-3.352,5.805c-0.995,1.398-11.5,8.6-11.788,6.904
						c-0.288-1.696,0.016-2.254,2.1-4.108c2.084-1.854,4.173-3.376,3.205-3.567c-0.969-0.192-8.346,3.5-9.776,5.438
						c-1.43,1.938-3.904,5.534-5.609,4.981c-1.705-0.552-0.899-2.372-0.899-2.372s-1.964,1.206-2.014-0.327
						c-0.051-1.533,1.943-9.039,3.867-11.113c1.924-2.074,16.368-8.578,18.903-10.056c0.762-0.444,6.042-2.42,6.042-2.42l8.486,5.78
						L216.72,222.681z"/>
				</g>
				<path style="opacity:0.2;" d="M258.247,202.978l0.644-8.654c0,0,3.938,4.556,2.178,10.883
					C261.068,205.208,258.853,203.045,258.247,202.978z"/>
			</g>
			<path style="opacity:0.2;" d="M276.656,238.191c0,0,9.789,3.039,11.07,3.585c0,0-0.285,1.06-15.696,0.373L276.656,238.191z"/>
			<g style="opacity:0.5;">
				<path style="fill:#407BFF;" d="M278.597,206.775c0.398-0.4,0.464-1.012,0.507-1.574c0.216-2.801,0.433-5.601,0.649-8.402
					c1.724,0.461,2.272,3.014,4.025,3.348c0.978,0.187,1.977-0.471,2.432-1.356c0.071-0.138,0.113-0.286,0.163-0.431
					c-7.986-10.521-17.382-18.917-26.128-16.765c-6.36,1.565-13.43,5.255-20.198,9.632c0.062,2.122,0.658,4.559,2.623,5.29
					c1.104,0.41,2.367,0.128,3.391-0.453c1.024-0.581,1.862-1.433,2.714-2.246c1.58-1.508,3.255-2.917,5.011-4.216
					c1.288-0.953,2.893-1.89,4.404-1.358c1.117,0.393,1.82,1.483,2.344,2.545s0.989,2.212,1.905,2.961
					c0.917,0.749,2.472,0.882,3.168-0.075c0.369-0.508,0.458-1.25,1.001-1.565c0.484-0.281,1.133-0.065,1.519,0.34
					c0.386,0.405,0.574,0.954,0.762,1.482c1.501,4.208,3.685,8.171,6.439,11.688c0.405,0.517,0.841,1.04,1.43,1.332
					C277.349,207.243,278.133,207.241,278.597,206.775z"/>
			</g>
		</g>
	</g>
</g>
<g id="Pool">
	<g>
		<g>
			<g style="opacity:0.5;">
				<path style="fill:#407BFF;" d="M360.644,275.25c-28.398-0.369-56.258-8.65-84.652-9.301c-29.955-0.687-59.6,7.132-89.562,6.911
					c-28.484-0.21-56.375-7.661-84.477-12.444c-28.103-4.784-58.757-1.385-86.717,4.208v193.921l473.012,1.408l2.028-182.684
					C474.867,233.122,405.293,275.831,360.644,275.25z"/>
			</g>
			<g style="opacity:0.3;">
				<path style="fill:#FFFFFF;" d="M362.42,275.251c-28.446,0.56-52.096-7.992-80.489-8.643
					c-29.955-0.688-58.997,3.202-88.871,5.498c-29.787,2.289-59.553-6.162-87.581-11.363c-30.571-5.672-62.283-1.712-90.243,3.881
					v4.936c33.033-8.427,77.698-7.481,107.732,8.908c12.016,6.557,24.845,15.245,38.069,11.969
					c6.922-1.715,12.924-6.618,19.989-7.521c11.383-1.454,21.551,7.718,32.957,8.973c21.103,2.322,38.415-22.381,59.49-19.799
					c13.586,1.664,24.192,14.456,37.84,15.445c13.134,0.952,24.838-9.308,37.988-9.978c8.617-0.439,16.859,3.278,25.331,4.961
					c8.471,1.683,18.676,0.585,23.498-6.77c20.233-0.066,40.598-10.943,59.451-18.49C426.071,257.895,392.983,274.65,362.42,275.251
					z"/>
			</g>
		</g>
		<path style="opacity:0.2;fill:#FFFFFF;" d="M16.322,367.711c0,0,74.838,39.724,117.118,35.36
			c42.281-4.364,161.211-65.571,225.11-73.57c63.899-7.999,131.724,21.197,131.724,21.197v40.568c0,0-83.512-61.238-129.724-48.647
			c-46.212,12.592-151.753,88.588-236.486,93.78c-84.733,5.192-107.743-12.683-107.743-12.683V367.711"/>
		<path style="opacity:0.3;fill:#FFFFFF;" d="M351.869,287.136c0,2.218-3.802,4.016-8.491,4.016c-4.689,0-8.491-1.798-8.491-4.016
			c0-2.218,3.802-4.016,8.491-4.016C348.067,283.12,351.869,284.918,351.869,287.136z"/>
		<g style="opacity:0.3;">
			<g>
				<path style="fill:#407BFF;" d="M154.968,349.493c17.005,0.597,34.054-0.554,50.827-3.422
					c16.965-2.901,33.632-7.552,49.637-13.884c15.802-6.251,30.645-14.521,46.02-21.702c7.871-3.677,15.908-7.037,24.226-9.573
					c8.372-2.553,16.975-4.301,25.647-5.458c17.569-2.345,35.349-2.326,53.039-2.047c2.164,0.034,4.328,0.072,6.492,0.111
					c0.483,0.009,0.483-0.741,0-0.75c-17.561-0.315-35.182-0.609-52.685,1.14c-8.596,0.859-17.153,2.213-25.539,4.302
					c-8.267,2.06-16.286,4.917-24.109,8.279c-15.694,6.744-30.547,15.268-46.224,22.05c-15.838,6.852-32.407,12.014-49.321,15.432
					c-16.992,3.433-34.34,5.094-51.675,4.918c-2.112-0.021-4.224-0.072-6.335-0.146
					C154.485,348.726,154.486,349.476,154.968,349.493L154.968,349.493z"/>
			</g>
		</g>
		<g style="opacity:0.3;">
			<g>
				<path style="fill:#407BFF;" d="M221.582,353.095c13.558-1.181,26.807-4.82,39.066-10.732c0.435-0.21,0.055-0.857-0.379-0.648
					c-12.133,5.851-25.268,9.46-38.687,10.629C221.105,352.386,221.1,353.137,221.582,353.095L221.582,353.095z"/>
			</g>
		</g>
		<g style="opacity:0.3;">
			<g>
				<path style="fill:#407BFF;" d="M266.915,339.25c1.561-0.062,3.061-0.715,4.161-1.825c0.34-0.343-0.19-0.874-0.53-0.53
					c-0.96,0.969-2.267,1.552-3.631,1.606C266.434,338.519,266.432,339.269,266.915,339.25L266.915,339.25z"/>
			</g>
		</g>
	</g>
</g>
</svg>
